<svg xmlns="http://www.w3.org/2000/svg" version="1.1" xmlns:xlink="http://www.w3.org/1999/xlink" width="396.85" height="396.85"><svg xmlns="http://www.w3.org/2000/svg" version="1.1" viewBox="0 0 396.85 396.85">
  <!-- Generator: Adobe Illustrator 29.0.0, SVG Export Plug-In . SVG Version: 2.1.0 Build 186)  -->
  <ellipse cx="199.74" cy="317.46" rx="178.13" ry="42.91" fill="#b8d880" stroke="#615035" stroke-miterlimit="10" stroke-width="8"></ellipse>
  <ellipse cx="200.63" cy="308.23" rx="156.37" ry="29.12" fill="#0ca44a" opacity=".33"></ellipse>
  <g>
    <path d="M44.65,175.06c0-1.5.05-2.62.05-4.12.1-.25.03-.49.06-.75.4-3.33.62-6.69,1.19-9.99,3.52-20.67,11.81-39.1,25.93-54.75,11.35-12.58,24.58-22.51,40.69-28.18,10.56-3.71,21.55-5.33,32.7-5.99,12.04-.71,24.04-.47,35.99,1.25,6.23.89,12.44,1.89,18.73,2.86.06-.26.16-.59.22-.93,2.45-14.25,12.78-28,30.58-31.39,8.32-1.59,16.48-.74,24.57,1.15,3.37.79,6.58,2.26,9.84,3.41,1.11-1.01,2.21-2.29,3.55-3.2,4.86-3.29,10.17-5.57,15.94-6.75,1.33-.27,2.66-.59,3.98-.88,1.21-.16,2.4-.14,3.58.25.69.18,1.39.18,2.09.27,6.86.9,12.83,3.73,18.06,8.22,14.69,12.62,21,36.49,14.96,54.38-4.06,12.02-12.42,19.02-24.46,22.05-1.41.35-2.86.54-4.52.85.41.33.59.5.79.64,7.07,4.95,13.43,10.73,18.64,17.56,14.09,18.48,24.06,38.84,27.35,62.12,1.51,10.69,1.58,21.38-.06,32.05-2.35,15.27-7.61,29.52-15.16,42.97-2.84,5.06-6.63,9.07-11.93,11.66-7.11,3.48-14.79,4.92-22.44,6.44-1.81.36-3.69.3-5.52.59-6.23.98-12.43,2.2-18.68,3.03-16.56,2.2-33.22,3.11-49.91,3.56-33.84.92-67.65.27-101.45-1.42-11.46-.57-22.9-1.55-34.16-3.9-4.33-.91-8.56-2.13-12.24-4.73-3.09-2.19-4.33-4.95-3.37-8.44.45-1.65,1.29-3.26,2.27-4.67,3.19-4.6,7.8-7.24,13.05-8.86,2.47-.76,4.96-1.48,7.62-2.28-2.3-3.19-2.16-6.54-.32-9.91-1.35-.43-2.42-.7-3.43-1.11-6.02-2.47-11.08-6.37-15.79-10.76-8.7-8.1-15.62-17.41-19.92-28.59-5.24-13.62-8.36-27.68-8.92-42.28-.01-.35,0-1.09-.12-1.44ZM74.51,113.2l.03-.02c-.13.11-.26.22-.39.32-1.63,1.26-2.22,2.87-1.65,4.88.24.87.35,1.78.62,2.63.79,2.46,1.63,4.9,2.45,7.35-.55-.25-.98-.62-1.31-1.06-1.87-2.48-2.48-5.43-3.13-8.37-.05-.36-.1-.72-.15-1.08-.14-.05-.29-.1-.43-.15-1.73,2.72-3.51,5.41-5.19,8.16-1.26,2.08-1.17,2.43.46,4.48.66,1.12,1.31,2.24,1.97,3.35-.09.1-.17.2-.26.3-.77-.45-1.54-.91-2.31-1.36-.61-.89-1.23-1.78-1.87-2.71-.18.17-.33.25-.39.37-4.89,9.72-8.5,19.86-10.16,30.64-.07.45.26,1.24.63,1.45,2.18,1.2,4.43,2.28,6.66,3.4,4.39,1.47,8.78,2.93,12.88,4.3-.44.05-1.31.19-2.18.22-3.6.14-7.04-.7-10.43-1.78-2.67-1.32-5.34-2.64-8.29-4.1-.15,2.43-.28,4.76-.46,7.08-.08,1,.34,1.51,1.28,1.66,2.57.4,5.13.79,7.7,1.19.34.17.68.34,1.08.54-.31.2-.54.35-.77.5-3.14.8-6.12-.15-9.35-1.06.17,2.89.35,5.57.46,8.26.06,1.46.55,2.07,2.18,1.94,1.83-.15,3.68.11,5.53.2,0,.23-.02.46-.03.69h-7.36c.04.4.03.75.1,1.09,1.46,6.85,2.63,13.78,4.47,20.53,2.59,9.48,6.47,18.45,12.78,26.14,2.14,2.61,4.52,5.04,6.95,7.72,3.35-2.87,6.49-5.56,9.63-8.26.1.11.2.22.31.33-1.99,3.73-4.98,6.6-8.47,9.22,1.03.96,1.92,1.79,2.89,2.7.59-.56,1.04-1.02,1.52-1.44,1.04-.92,2.09-1.82,3.13-2.73h-.01c-1.02,1.74-2.03,3.49-3.17,5.44,1.92,1.27,3.92,2.66,6.01,3.93.36.22,1.12,0,1.59-.23.67-.32,1.25-.83,1.87-1.25.07.09.14.18.22.26-.48.74-.96,1.47-1.48,2.27.26.18.44.36.66.44,2.65,1,5.31,1.99,7.97,2.95.31.11.7.07,1.04.03,5.81-.76,11.47.33,17.13,1.39,1.22.23,2.48.48,3.71.43,5.42-.19,10.44-1.79,15.03-4.66.46-.29.95-1.19.83-1.66-.47-1.92-.99-3.88-1.84-5.66-.93-1.95-2.23-3.72-3.37-5.57,4.42,2.4,6.27,6.42,6.97,11.31.71-.43,1.26-.68,1.7-1.06,3.5-3.05,7.17-5.95,10.42-9.25,3.71-3.79,6.39-8.33,7.9-13.48,1.07-3.67,1.82-7.38,1.14-11.23-.28-.39-.51-1.05-.84-1.11-1.31-.23-2.65-.26-3.99-.37-1.14-.11-2.28-.16-3.41-.34-.37-.06-.69-.43-1.04-.66.33-.31.61-.81.99-.9.76-.18,1.58-.14,2.37-.19,1.86.21,3.72.41,5.61.62-.12-2.45-.12-2.47-2.29-2.84-.83-.14-1.67-.2-2.51-.29-1.65-.45-3.3-.9-4.95-1.35.03-.25.05-.51.08-.76h4.51c1.46.3,2.91.6,4.43.92q-.36-2.68-2.69-3.04c-.59-.09-1.17-.21-1.75-.32-.1-.27-.2-.54-.29-.81,1.2-.13,2.4-.26,3.96-.43-1.54-4.05-3.03-7.94-4.48-11.74-.85.07-1.33.11-2.22.18,1.74-1.63.51-2.66-.27-3.77-4.75-6.76-11.29-11.08-18.96-13.82-.44-.16-1.07-.03-1.53.16-1.61.67-3.18,1.42-4.76,2.14-.09-.04-.19-.06-.29-.06,1.41-1.01,2.81-2.03,4.35-3.13-2.01-.43-4-.89-6-1.26-.35-.06-.9.17-1.14.45-1.16,1.37-2.25,2.8-3.37,4.22-.3.3-.59.6-1,1.01v-.92c1.04-1.6,2.08-3.19,3.16-4.84-1.61-.17-3.18-.26-4.43,1.21-1.13,1.33-2.34,2.58-3.52,3.87-.38.09-.76.18-1.14.26-.59-2.14,1.51-3.07,2.3-4.85-4.2.86-8.05,1.95-11.46,4.28-1.52,1.4-3.04,2.8-4.56,4.19h.03c-.13.1-.26.21-.39.32-.48.8-.96,1.59-1.44,2.39l-.08.18c.06-.02.13-.05.19-.07,2.92-1.38,5.96-1.8,9.18-1.47,5.17.53,9.8,2.28,13.87,5.5.64.63,1.31,1.24,1.93,1.9,5.97,6.39,9.14,13.84,8.31,22.69-.57,6.08-3.21,10.81-9.33,12.97-3.53,1.24-7.18,1.55-10.82.84-7.83-1.54-13.43-6.34-17.54-12.89-6.07-9.67-5.89-19.95-2.2-30.35,1.71-4.83,4.95-8.57,9.29-11.28,6.11-3.82,12.89-5.54,20.02-5.62,9.24-.1,17.42,3.34,25.05,8.24,5.59,3.59,9.99,8.42,13.14,14.2,3.6,6.6,5.59,13.8,6.88,21.2,1.89,10.87-.22,20.82-6.71,29.78-4.56,6.29-10.29,11.34-16.88,15.41-2.19,1.35-4.49,2.51-6.73,3.76,1.98.25,3.92.26,5.83.03,7.2-.87,13.51-4.08,19.46-7.94,8.15-5.29,16.12-10.87,24.17-16.31.75-.51,1.56-.93,2.33-1.39.17.15.34.3.5.46-.61,1.01-1.14,2.08-1.86,3.01-7.74,10.14-17.41,17.92-28.83,23.57-7.3,3.61-14.91,5.67-23.08,4.73-4.02-.46-7.99-1.37-11.97-2.14-3.73-.72-7.45-1.52-11.18-2.29-2.63-.28-5.26-.68-7.89-.77-1.42-.05-2.87.37-4.27.72-.37.09-.9.76-.85,1.09.4,2.91,1.71,5.24,4.29,6.87,4.29,2.72,8.97,4.49,13.88,5.56,10.73,2.34,21.6,2.16,32.44,1.05,3.65-.37,7.24-1.43,10.85-2.17h0c.24-.07.48-.15.71-.22,2.9-1.22,5.95-2.15,8.66-3.7,13.82-7.9,23.26-19.58,28.09-34.65,3.95-12.33,7.19-24.9,10.57-37.41,3.67-13.58,7.2-27.2,12.11-40.4,1.18-3.19,2.47-6.33,3.71-9.5.08-.15.16-.3.24-.44.09-.21.19-.41.28-.62.2-.35.42-.68.58-1.04,3.16-7.02,6.97-13.64,12.11-19.43.19-.21.31-.49.54-.87-.47-.14-.83-.26-1.2-.36-9.27-2.36-17.51-6.59-24.16-13.58-1.78-1.88-3.32-4-4.96-6v.02c-.12-.21-.23-.42-.34-.63-3.3-5.56-5.21-11.57-5.84-18,0-1.4-.04-2.8.03-4.19.04-.88-.35-1.11-1.13-1.18-2.69-.24-5.37-.55-8.05-.76-.41-.03-1.01.22-1.24.54-.57.8-.97,1.72-1.44,2.6-.25.49-.59.95-.74,1.46-1.53,5.17-3.24,10.31-4.48,15.55-1.8,7.6-3.25,15.27-4.85,22.91.53-6.77,1.08-13.56,2.01-20.29.94-6.81,2.77-13.41,5.41-19.78.64-1.08,1.29-2.16,2.06-3.45-3.21-.37-6.13-.72-9.05-1.03-8.41-.87-16.83-1.4-25.29-.83-.48.03-1.14.03-1.4.32-1.43,1.57-2.77,3.23-4.14,4.86-2.08,3.7-4.54,7.23-6.17,11.12-5.99,14.27-7.38,29.32-7.01,44.62.02.83.19,1.66.28,2.48-.47-.58-.69-1.23-.81-1.89-1.32-7.36-1.52-14.79-.54-22.15,1.59-12.01,4.86-23.53,11.75-33.74,1.52-1.81,3.05-3.61,4.62-5.48-.56,0-1.09-.02-1.63,0-5.89.22-6.19.43-8.47,5.93-1.48,3.81-2.96,7.62-4.44,11.42-.29-.9-.48-1.83-.26-2.65.76-2.74,1.67-5.43,2.52-8.14,1.12-1.93,2.24-3.87,3.48-6.01-2.21.3-4.23.57-6.25.84-15.76,2.15-30.07,7.72-42.72,17.53-2.61,2.03-4.22,4.26-4.56,7.48-3.44,13.73.97,25.5,9.18,36.35-.37-.06-.65-.15-.86-.32-6.23-5.46-10.02-12.24-11.2-20.47-.64-4.51-.3-8.98.26-13.46.27-1.43.53-2.87.8-4.3l.07.03-.04-.04c-3.23,3.33-6.47,6.66-9.69,10.01-.33.34-.52.81-.78,1.21l.03-.02c-.11.11-.22.22-.33.33ZM323.57,275.28v.04c.09-.31.2-.62.31-.93v.03c.18-.15.43-.27.53-.46,1.47-2.9,3.01-5.77,4.37-8.73,10.66-23.07,13.49-47.02,7.61-71.8-4.19-17.68-12.26-33.65-22.94-48.24-6.11-8.35-13.34-15.74-22.23-21.29-.66-.41-1.27-1.05-1.99-1.23-2.37-.59-4.79-1.02-7.19-1.52-3.84-1.28-7.53-2.88-10.65-5.58-4.27,3.56-9.03,5.93-14.1,7.74-4.78,1.2-9.6,2.02-14.55,1.85-.37-.01-.9.24-1.12.54-2.2,2.98-4.48,5.91-6.5,9.02-5.06,7.78-8.45,16.37-11.46,25.09-5.02,14.55-8.58,29.51-12.32,44.42-2.97,11.85-5.72,23.76-10.16,35.19-6.35,16.32-17.23,28.59-32.78,36.67-5.02,2.61-10.49,3.91-16.01,4.97-10.22,1.27-20.46,1.59-30.71.54-8.33-.86-16.19-3.16-23.37-7.58-.43-.26-1.06-.5-1.5-.38-1.64.43-3.24,1.01-4.85,1.53-3.17,1.35-6.54,2.37-9.45,4.15-2.19,1.33-3.93,3.51-5.6,5.53-1.26,1.53-.93,2.78.82,3.67,1.9.97,3.9,2.02,5.97,2.36,7.65,1.26,15.31,2.71,23.03,3.24,15.09,1.04,30.21,1.61,45.32,2.19,8.61.33,17.23.28,25.85.4.22,0,.43.01.65.02,2.59.04,5.18.09,7.77.13.75.02,1.5.06,2.25.06,19.9.08,39.79-.19,59.62-1.79,10.97-.88,21.91-2.26,32.83-3.71,6.24-.83,12.38-2.5,18.62-3.34,7.57-1.02,14.21-4.08,20.35-8.35,1.35-.94,2.18-2.62,3.25-3.97.11-.16.22-.33.33-.49ZM124.73,207.91c-.33-2.44-.51-4.91-1.72-6.96-.89.42-1.68.79-2.47,1.16-.2-.29-.4-.57-.61-.86.51-.4,1.11-.73,1.49-1.22.31-.41.64-1.17.46-1.51-.72-1.34-1.64-2.57-2.53-3.93-.7,1.08-1.26,1.95-1.82,2.82-.56.28-1.13.56-2.03,1.02.55-.87.85-1.35,1.16-1.84.24-.25.5-.48.71-.76,1.37-1.83,1.36-2.02-.33-3.53-3.98-3.58-8.8-4.73-13.98-4.71-1.77,0-3.23.77-4.55,1.97-.94.85-2.1,1.45-3.16,2.17-.23.2-.47.41-.7.61-1.43,8.25.77,15.45,6.41,21.58,4.02,4.37,8.83,7.04,15.01,6.37,3.26-.36,6.34-1.27,7.62-4.67.69-1.83.76-3.89,1.1-5.84-.02-.62-.03-1.24-.05-1.86ZM281.05,44.86c-4.25,1.27-8.32,2.91-11.71,5.46,2.23,2.74,4.3,5.3,6.41,7.9,1.64-3.66,4.21-6.8,7.65-9.19,1.56-1.08,3.18-2.06,4.78-3.09,1.83-.72,3.66-1.44,5.9-2.33-4.74-.76-8.93-.22-13.04,1.24ZM232.81,51.65c1.47-1.14,2.93-2.29,4.71-3.67-4.25.34-7.93,1.22-11.49,2.62-7.36,2.64-12.49,7.78-16.2,14.5-3.77,6.66-4.79,13.9-3.98,21.35,1.34,12.36,8.34,20.92,18.87,26.92.36.2.77.31,1.53.6-.58-.91-.92-1.45-1.26-1.99-4.98-7.85-7.17-16.46-6.92-25.71.06-2.05.34-4.09.53-6.13.08-.24.19-.47.24-.71,1.99-10.61,5.98-20.2,13.99-27.78ZM281.1,101.75c-1.64,3.07-3.27,6.13-4.99,9.35.35.24.86.62,1.41.94,5.47,3.15,11.38,4.53,17.68,4.24,3.66-.17,7.27-.54,10.61-2.21,7.42-2.83,12.45-7.97,15.02-15.51,4.09-12.01,2.44-23.61-2.75-34.86-2.79-6.04-6.88-11.13-12.27-15.11-.62-.46-1.39-.89-2.13-.97-5.22-.53-10.27-.12-14.92,2.71-4.31,2.62-8.18,5.62-10.15,10.46-.22.54-.19,1.39.08,1.89,3.52,6.43,4.91,13.39,5.24,20.62.29,6.33-.83,12.46-2.82,18.44ZM253.84,117.31c8.42-2.18,15.27-6.62,19.42-14.4,5.37-10.07,5.68-20.78,2.52-31.49-1.4-4.74-3.91-9.18-6.15-13.64-.72-1.44-2.03-2.76-3.37-3.68-6.2-4.24-13.32-5.49-20.65-5.92-.28-.02-.61.03-.86.17-5.24,2.78-9.71,6.48-13.23,11.29-.33.43-.69.85-.99,1.3-4.42,6.76-6.74,14.26-7.59,22.22-1.13,10.53,1.33,20.18,7.73,28.69,2.28,3.04,5.42,5.35,8.96,6.27,4.68,1.22,9.54.55,14.23-.79Z" fill="#615035"></path>
    <path d="M154.24,203.7c.1.27.2.54.29.81,0,.81.01,1.62.02,2.44h-4.51c-.03.25-.05.51-.08.76,1.65.45,3.3.9,4.95,1.35.07.52.3,1.09.18,1.56-.1.38-.64.64-.98.95-.79.05-1.61.01-2.37.19-.38.09-.66.58-.99.9.34.23.67.6,1.04.66,1.13.18,2.27.24,3.41.34.27,3.9-.37,7.62-2.14,11.13l.02-.02c-.2.09-.41.19-.61.28-1.17.84-2.23,2-3.54,2.45-3.38,1.18-5.99,3.32-8.48,5.77-.97.95-2.2,1.76-3.46,2.28-4.05,1.67-8.32,2.71-12.68,2.89-5.63.23-11.36.63-16.9-.12-8.01-1.09-15.12-4.63-21.24-10.12-6.79-6.1-12.4-13.1-16.37-21.28-2.09-4.3-3.6-8.91-5.07-13.48-1.89-5.87-3.31-11.86-3.78-18.04.23-.15.45-.29.77-.5-.4-.2-.74-.37-1.08-.54-.08-1.94-.15-3.89-.23-5.83,3.39,1.08,6.83,1.92,10.43,1.78.87-.03,1.74-.18,2.18-.22-4.09-1.37-8.49-2.83-12.88-4.3.09-1.74.25-3.48.27-5.22.07-5.91.92-11.73,2.25-17.48.81-3.5,1.73-6.97,2.6-10.45.77.45,1.54.91,2.31,1.36.09-.1.17-.2.26-.3-.66-1.12-1.31-2.24-1.97-3.35.39-.73.82-1.44,1.16-2.2,1.4-3.06,2.77-6.14,4.15-9.21.65,2.94,1.26,5.89,3.13,8.37.33.44.76.81,1.31,1.06-.82-2.45-1.66-4.89-2.45-7.35-.27-.86-.38-1.76-.62-2.63-.57-2.02.02-3.62,1.65-4.88.13-.11.26-.22.39-.32l-.03.02c.11-.11.22-.22.33-.33l-.03.02c.41-.26.83-.51,1.23-.8,2.81-2.03,5.61-4.08,8.41-6.11-.56,4.48-.9,8.95-.26,13.46,1.17,8.23,4.97,15.01,11.2,20.47.2.18.49.27.86.32-8.21-10.85-12.62-22.61-9.18-36.35,1.19-.61,2.42-1.18,3.58-1.85,10.66-6.14,21.71-11.45,33.45-15.17,4.22-1.34,8.68-1.9,13.02-2.82-.85,2.71-1.76,5.41-2.52,8.14-.23.82-.04,1.75.26,2.65,1.48-3.81,2.96-7.62,4.44-11.42,1.82-.15,3.65-.3,5.47-.45-6.89,10.21-10.16,21.72-11.75,33.74-.97,7.37-.78,14.8.54,22.15.12.66.35,1.31.81,1.89-.1-.83-.26-1.65-.28-2.48-.36-15.3,1.03-30.35,7.01-44.62,1.63-3.89,4.09-7.42,6.17-11.12,2.09-.02,4.18-.05,6.27-.06,9.94-.07,19.87-.15,29.81-.19.58,0,1.16.25,1.74.38-2.63,6.37-4.47,12.98-5.41,19.78-.93,6.73-1.48,13.52-2.01,20.29,1.6-7.64,3.06-15.32,4.85-22.91,1.24-5.24,2.95-10.38,4.48-15.55.15-.52.49-.98.74-1.46,2.56.49,5.13.9,7.66,1.49,1.43.34,2.78.99,4.17,1.5.62,6.43,2.54,12.44,5.84,18,.11.21.22.42.33.63,0,0,0-.02,0-.02.05.34,0,.73.16,1,1.08,1.86,2.13,3.74,3.33,5.51,2.88,4.26,5.99,8.37,8.71,12.73,2.09,3.34,3.88,6.9,4.28,10.95-2.32-.12-4.63-.24-6.95-.35-.98-.46-1.94-1.26-2.95-1.33-4.23-.26-8.51-.69-12.71-.33-7.35.63-14.49,2.45-21.4,5.13-9.25,3.59-18.12,7.83-25.67,14.42-.72.62-1.34,1.35-2.01,2.03.08.16.15.33.23.49.8-.06,1.64,0,2.41-.19,2.42-.64,4.82-1.37,7.22-2.07,1.14-.33,2.28-.69,3.42-1.03.31-.1.61-.2.92-.29h-.04c2.5-.84,5.1-1.46,7.47-2.56,8.65-4.01,17.48-7.42,26.88-9.22,1.5-.29,3.02-.43,4.53-.63-.23.1-.45.22-.68.31-6.49,2.47-13.11,4.64-19.44,7.46-10.29,4.59-19.37,11.01-26.79,19.6-.67.78-1.17,1.73-1.66,2.65-.11.2.16.6.25.91.27-.13.64-.19.79-.4,2.86-4.06,6.62-7.19,10.48-10.22-.44.76-.84,1.56-1.32,2.29-.72,1.08-1.62,2.05-2.23,3.18-.6,1.11-1.41,2.66-.14,3.54,1.28.9,2.58-.23,3.5-1.24,5.4-5.96,11.9-10.65,17.94-15.88,1.57-1.36,2.96-2.92,4.44-4.39,9.58-4.02,19.26-7.74,29.68-9.3-1.27-.11-2.54-.22-3.81-.33.42-.45.84-.9,1.25-1.35,2.22-.1,4.44-.19,6.66-.29.01,3.03,0,6.06.04,9.09,0,.47.17.94.27,1.41-.09.21-.19.41-.28.62-.08.15-.16.3-.24.44-1.24,3.17-2.52,6.31-3.71,9.5-4.91,13.21-8.44,26.82-12.11,40.4-3.38,12.51-6.61,25.08-10.57,37.41-4.83,15.07-14.28,26.75-28.09,34.65-2.71,1.55-5.76,2.48-8.66,3.7-.24.07-.48.15-.71.22h0c-1.15,0-2.32-.17-3.44,0-3.82.6-7.58-.02-11.31-.61-7.34-1.16-14.36-3.52-21.25-6.23-4.22-1.66-8.3-3.68-12.45-5.53,3.72.77,7.44,1.57,11.18,2.29,3.98.77,7.95,1.68,11.97,2.14,8.17.93,15.79-1.13,23.08-4.73,11.43-5.65,21.09-13.43,28.83-23.57.71-.93,1.24-2,1.86-3.01-.17-.15-.33-.3-.5-.46-.78.46-1.59.89-2.33,1.39-8.05,5.44-16.02,11.01-24.17,16.31-5.95,3.86-12.26,7.07-19.46,7.94-1.91.23-3.84.23-5.83-.03,2.25-1.25,4.55-2.41,6.73-3.76,6.59-4.07,12.32-9.12,16.88-15.41,6.49-8.96,8.61-18.91,6.71-29.78-1.29-7.4-3.28-14.61-6.88-21.2-3.15-5.78-7.55-10.62-13.14-14.2-7.63-4.89-15.82-8.34-25.05-8.24-7.12.08-13.9,1.79-20.02,5.62-4.34,2.71-7.58,6.45-9.29,11.28-3.69,10.41-3.87,20.68,2.2,30.35,4.11,6.55,9.7,11.35,17.54,12.89,3.64.72,7.29.41,10.82-.84,6.12-2.15,8.76-6.88,9.33-12.97.83-8.85-2.34-16.3-8.31-22.69-.61-.66-1.28-1.27-1.93-1.9-.58-3.9-2.12-7.18-5.86-9.05-.79-.39-1.52-.88-2.28-1.33.16-.03.33-.06.49-.09.38-.09.76-.18,1.14-.26,1.6-.08,3.19-.15,4.79-.23v.92c.41-.41.71-.71,1-1.01,1.57.08,3.15.2,4.72.2.48,0,.96-.31,1.44-.48.1,0,.19.02.29.06.47.28.91.72,1.41.82,8.11,1.49,15.12,4.86,20.24,11.56,3.4,4.44,5.94,9.26,6.62,14.91ZM135.11,154.37c-2.35-.04-4.26.76-5.4,2.18-.94,1.17-1.34,2.5-.63,3.9.68,1.32,1.77,2.1,3.36,2.1,2.54,0,4.82-2.01,5.68-5.09.48-1.73,0-2.56-1.73-2.94-.53-.12-1.09-.14-1.28-.16Z" fill="#5fc0c0"></path>
    <path d="M257.31,123.32c5.06-1.81,9.83-4.18,14.1-7.74,3.12,2.7,6.8,4.3,10.65,5.58.41.72.67,1.59,1.25,2.14,2.1,2,4.31,3.89,6.47,5.83,7.9,7.09,15.67,14.32,22.64,22.37,6.07,7.02,10.66,14.89,13.6,23.69,2.59,7.76,4.47,15.71,5.39,23.84.75,6.55,1.33,13.13,1.72,19.72.21,3.63-.05,7.31-.25,10.95-.22,3.89-.49,7.79-1,11.66-1.41,10.66-3.98,21.05-7.61,31.18-.21.6-.26,1.26-.38,1.9v-.03c-.1.31-.2.62-.31.93v-.04c-.1.16-.2.33-.31.49-1.07,1.34-1.9,3.03-3.25,3.97-6.14,4.28-12.78,7.34-20.35,8.35-6.24.84-12.37,2.51-18.62,3.34-10.92,1.45-21.86,2.83-32.83,3.71-19.84,1.6-39.73,1.87-59.62,1.79-.75,0-1.5-.04-2.25-.06-2.59-.04-5.18-.09-7.77-.13-.22,0-.43-.01-.65-.02.36-.27.7-.58,1.08-.81,7.92-4.84,14.79-10.89,20.87-17.89,8.15-9.39,13.58-20.21,17.28-32,1.87-5.95,2.96-12.1,5.58-17.88,3.03-6.68,5.17-13.76,7.8-20.62,4.86-12.67,9.66-25.35,13.58-38.35,3.8-12.6,7.76-25.16,11.55-37.77.79-2.61,1.12-5.36,1.66-8.05ZM292.34,135.3c-.65.16-1.14.21-1.57.4-1.83.81-3.63,1.7-5.47,2.49-3.44,1.47-6.99,2.46-10.78,2.28-4.18-.2-7.7-1.97-10.87-4.6-.24-.2-.67-.17-1.01-.24-.06.3-.21.62-.17.9.31,2.03.51,4.09,1.02,6.07,3.77,14.59,7.42,29.22,11.49,43.73,1.93,6.88,4.64,13.54,7.11,20.25.54,1.48,1.47,3.08,3.45,2.8,1.91-.27,2.27-2.03,2.5-3.53.69-4.55,1.43-9.11,1.78-13.69.86-11.14,1.61-22.29,2.22-33.44.37-6.75.39-13.52.53-20.28.02-.98-.13-1.97-.22-3.13Z" fill="#e5c05d"></path>
    <path d="M257.31,123.32c-.54,2.69-.88,5.44-1.66,8.05-3.79,12.61-7.75,25.16-11.55,37.77-3.92,13-8.72,25.69-13.58,38.35-2.63,6.86-4.77,13.94-7.8,20.62-2.62,5.78-3.71,11.93-5.58,17.88-3.7,11.79-9.13,22.6-17.28,32-6.08,7.01-12.94,13.05-20.87,17.89-.38.23-.72.54-1.08.81-8.62-.12-17.24-.07-25.85-.4-15.11-.58-30.24-1.14-45.32-2.19-7.72-.53-15.38-1.98-23.03-3.24-2.07-.34-4.06-1.39-5.97-2.36-1.75-.89-2.08-2.14-.82-3.67,1.67-2.02,3.41-4.2,5.6-5.53,2.91-1.77,6.28-2.8,9.45-4.15,1.95,1.52,3.76,3.3,5.88,4.51,8.47,4.81,17.78,6.87,27.38,7.6,7.63.58,15.08-.62,22.24-3.31,1.76-.66,3.3-1.92,4.95-2.9,5.52-1.07,10.99-2.36,16.01-4.97,15.55-8.08,26.43-20.36,32.78-36.67,4.44-11.42,7.19-23.34,10.16-35.19,3.74-14.91,7.3-29.87,12.32-44.42,3.01-8.72,6.39-17.3,11.46-25.09,2.02-3.1,4.3-6.04,6.5-9.02.22-.3.75-.55,1.12-.54,4.95.17,9.78-.65,14.55-1.85ZM241.22,139.66c-.11-.06-.22-.11-.32-.17-.14.12-.32.22-.41.37-.99,1.56-2.09,3.07-2.93,4.71-5.22,10.34-9.58,21.03-12.54,32.26-.34,1.3-.38,2.69-.55,4.04.13.02.27.05.4.07.11-.31.22-.62.33-.93,2.82-7.65,5.49-15.36,8.5-22.93,2.12-5.34,4.69-10.5,7.04-15.75.23-.52.33-1.11.49-1.67ZM214.53,222.2c-.2-.03-.4-.07-.6-.1-.46,1.6-1.03,3.17-1.35,4.8-.85,4.27-1.49,8.58-2.41,12.83-1.35,6.27-3.48,12.23-7.7,17.23-.16.19-.22.48-.33.72.12.11.24.22.36.33.85-.77,1.91-1.41,2.51-2.34,1.63-2.57,3.28-5.16,4.52-7.92,2.6-5.8,3.61-12.06,4.52-18.3.35-2.38.34-4.82.49-7.23ZM196.22,262.25c-.11-.12-.22-.25-.33-.37-7.07,5.86-14.13,11.72-21.12,17.51,2.71-.04,20.3-14,21.45-17.13ZM218.15,200.56c.21.03.43.07.64.1.44-2.72.89-5.44,1.33-8.16-.17-.03-.35-.06-.52-.08-1.14,2.6-1.65,5.31-1.45,8.15ZM215.86,213.5c.2,0,.39,0,.59.01.1-1.11.21-2.21.31-3.32-.18-.02-.36-.03-.54-.05-.12,1.12-.24,2.23-.35,3.35Z" fill="#d9a73a"></path>
    <path d="M231.5,59.62c3.52-4.8,7.99-8.5,13.23-11.29.25-.13.58-.18.86-.17,7.33.43,14.44,1.69,20.65,5.92,1.35.92,2.65,2.24,3.37,3.68,2.24,4.46,4.76,8.9,6.15,13.64,3.16,10.71,2.85,21.43-2.52,31.49-4.15,7.78-11,12.22-19.42,14.4-.45-.38-.86-.83-1.36-1.14-6.7-4.14-12.43-9.23-16.27-16.24-3.23-5.89-5.31-12.11-5.25-18.87.06-7.15.36-14.29.55-21.44ZM264.69,89.48c-.15-2-.14-3.77-.46-5.47-.37-1.94-.82-3.92-1.64-5.7-.76-1.67-2.69-2.18-4.23-1.57-1.5.58-2.26,2.08-2.03,3.93.19,1.49.4,2.97.52,4.46.2,2.39.21,4.8.52,7.17.26,1.99,1.69,3.17,3.4,3.21,1.74.04,3.15-1.07,3.59-3,.24-1.06.25-2.17.34-3.02Z" fill="#fdfdfd"></path>
    <path d="M281.1,101.75c1.99-5.99,3.11-12.11,2.82-18.44-.33-7.23-1.72-14.19-5.24-20.62-.28-.5-.3-1.35-.08-1.89,1.97-4.84,5.84-7.84,10.15-10.46,4.65-2.83,9.7-3.24,14.92-2.71.74.08,1.51.51,2.13.97,5.39,3.97,9.48,9.07,12.27,15.11,5.19,11.25,6.84,22.84,2.75,34.86-2.56,7.53-7.59,12.68-15.02,15.51-.66-.19-1.31-.45-1.99-.55-1.97-.3-3.96-.44-5.92-.82-4.88-.93-8.75-3.76-12.46-6.83-1.53-1.27-2.9-2.74-4.34-4.12ZM306.37,86.24s-.07,0-.1,0c-.06-.8-.08-1.6-.17-2.39-.32-2.76-1.01-5.41-2.62-7.72-.9-1.29-2.35-1.68-3.55-1.11-1.22.58-1.8,1.91-1.5,3.43.06.29.18.58.21.87.31,2.76.67,5.52.88,8.29.08,1.13-.27,2.29-.25,3.43.03,1.28.36,2.54,1.73,3.06,1.44.54,2.75.03,3.63-1.07.69-.86,1.17-1.98,1.43-3.06.29-1.19.22-2.48.31-3.72Z" fill="#fdfdfd"></path>
    <path d="M60.91,175.39c.47,6.18,1.89,12.18,3.78,18.04,1.47,4.57,2.98,9.18,5.07,13.48,3.97,8.18,9.58,15.18,16.37,21.28,6.12,5.5,13.23,9.03,21.24,10.12,5.54.75,11.27.35,16.9.12,4.36-.18,8.63-1.22,12.68-2.89,1.26-.52,2.49-1.32,3.46-2.28,2.49-2.45,5.1-4.59,8.48-5.77,1.31-.46,2.36-1.62,3.54-2.45.2-.09.41-.19.61-.28l-.02.02c.72-.4,1.65-.64,2.1-1.24,1.18-1.57,2.19-3.27,3.18-4.97.64-1.1,1.12-2.29,1.68-3.45.67,3.85-.07,7.56-1.14,11.23-1.5,5.15-4.18,9.7-7.9,13.48-3.25,3.31-6.92,6.2-10.42,9.25-.44.38-.99.63-1.7,1.06-.7-4.89-2.54-8.91-6.97-11.31,1.14,1.85,2.44,3.62,3.37,5.57.85,1.78,1.37,3.73,1.84,5.66.12.47-.37,1.37-.83,1.66-4.59,2.86-9.61,4.47-15.03,4.66-1.23.04-2.49-.2-3.71-.43-5.66-1.06-11.32-2.16-17.13-1.39-.34.04-.73.08-1.04-.03-2.67-.96-5.32-1.95-7.97-2.95-.22-.08-.4-.26-.66-.44.52-.8,1-1.53,1.48-2.27-.07-.09-.14-.18-.22-.26-.62.43-1.2.94-1.87,1.25-.48.23-1.23.45-1.59.23-2.09-1.26-4.1-2.66-6.01-3.93,1.13-1.95,2.15-3.7,3.17-5.45h.01c-1.05.92-2.1,1.82-3.13,2.74-.48.43-.94.88-1.52,1.44-.97-.91-1.86-1.74-2.89-2.7,3.49-2.62,6.48-5.48,8.47-9.22-.1-.11-.2-.22-.31-.33-3.14,2.69-6.28,5.38-9.63,8.26-2.43-2.68-4.81-5.1-6.95-7.72-6.31-7.7-10.2-16.66-12.78-26.14-1.84-6.75-3.01-13.68-4.47-20.53-.07-.33-.07-.68-.1-1.09h7.36c0-.23.02-.46.03-.69-1.84-.08-3.7-.34-5.53-.2-1.63.13-2.12-.48-2.18-1.94-.11-2.69-.3-5.38-.46-8.26,3.23.91,6.21,1.86,9.35,1.06ZM138.56,239.96c.54,2.82,2.59,4.56,3.91,7.11.42-2.51-1.55-5.93-3.91-7.11Z" fill="#3ea9a9"></path>
    <path d="M323.87,274.42c.12-.63.17-1.3.38-1.9,3.62-10.13,6.2-20.52,7.61-31.18.51-3.86.78-7.76,1-11.66.21-3.65.47-7.32.25-10.95-.39-6.58-.97-13.16-1.72-19.72-.92-8.13-2.8-16.08-5.39-23.84-2.94-8.8-7.53-16.67-13.6-23.69-6.96-8.05-14.73-15.28-22.64-22.37-2.16-1.94-4.37-3.83-6.47-5.83-.57-.55-.84-1.42-1.25-2.14,2.4.49,4.81.92,7.18,1.52.72.18,1.32.81,1.99,1.23,8.89,5.55,16.11,12.94,22.23,21.29,10.68,14.59,18.75,30.56,22.94,48.24,5.88,24.78,3.05,48.73-7.61,71.8-1.36,2.95-2.9,5.83-4.37,8.73-.1.19-.36.31-.54.46Z" fill="#f4e79e"></path>
    <path d="M231.5,59.62c-.19,7.15-.49,14.29-.55,21.44-.06,6.76,2.02,12.98,5.25,18.87,3.85,7.01,9.57,12.1,16.27,16.24.5.31.91.76,1.36,1.14-4.69,1.34-9.55,2.02-14.23.79-3.54-.93-6.68-3.24-8.96-6.27-6.39-8.52-8.85-18.16-7.73-28.69.85-7.95,3.17-15.46,7.59-22.22.3-.45.66-.87.99-1.3Z" fill="#d9f1f9"></path>
    <path d="M110.02,260.27c4.14,1.86,8.23,3.87,12.45,5.53,6.89,2.71,13.91,5.07,21.25,6.23,3.73.59,7.49,1.21,11.31.61,1.12-.18,2.29-.02,3.44-.01-3.62.74-7.2,1.79-10.85,2.17-10.85,1.11-21.71,1.29-32.44-1.05-4.9-1.07-9.58-2.84-13.88-5.56-2.58-1.63-3.88-3.96-4.29-6.87-.05-.33.48-1,.85-1.09,1.4-.35,2.85-.77,4.27-.72,2.64.09,5.26.5,7.89.77Z" fill="#3ea8a8"></path>
    <path d="M218.59,80.13c-.18,2.04-.47,4.08-.53,6.13-.25,9.25,1.94,17.86,6.92,25.71.34.54.69,1.08,1.26,1.99-.76-.29-1.18-.39-1.53-.6-10.52-6.01-17.53-14.56-18.87-26.92-.81-7.45.22-14.69,3.98-21.35.64,1.61,1.2,3.27,1.93,4.84,1.74,3.75,3.66,7.4,6.83,10.21Z" fill="#d9a73a"></path>
    <path d="M124.78,209.77c-.35,1.96-.42,4.01-1.1,5.84-1.28,3.4-4.36,4.31-7.62,4.67-6.17.67-10.99-2-15.01-6.37-5.64-6.13-7.84-13.33-6.41-21.58.43-.04.86-.08,1.29-.11.58.03,1.16.07,1.74.1.63,1.46,1.32,2.9,1.89,4.38,1.93,4.98,5.47,8.55,9.88,11.32,2.47,1.55,5.19,2.38,8.15,1.69,1.7-.39,3.35-.97,5.03-1.46.16.73.32,1.47.48,2.2l1.68-.68Z" fill="#3ea9a9"></path>
    <path d="M137.11,84.03c-4.35.92-8.81,1.49-13.02,2.82-11.74,3.72-22.79,9.03-33.45,15.17-1.16.67-2.38,1.23-3.58,1.85.33-3.22,1.94-5.45,4.56-7.48,12.65-9.81,26.96-15.38,42.72-17.53,2.02-.28,4.04-.54,6.25-.84-1.24,2.14-2.36,4.08-3.48,6.01Z" fill="#9fe8e8"></path>
    <path d="M218.59,80.13c-3.17-2.8-5.09-6.45-6.83-10.21-.73-1.57-1.29-3.22-1.93-4.84,3.71-6.72,8.84-11.85,16.2-14.5,2.26.35,4.52.7,6.78,1.06-8.01,7.58-12,17.17-13.99,27.78-.05.24-.16.47-.24.71Z" fill="#e4bf5c"></path>
    <path d="M152.41,281.06c-1.64.98-3.18,2.23-4.95,2.9-7.16,2.7-14.61,3.89-22.24,3.31-9.6-.73-18.91-2.79-27.38-7.6-2.13-1.21-3.93-2.99-5.88-4.51,1.61-.52,3.21-1.1,4.85-1.53.44-.12,1.08.12,1.5.38,7.18,4.42,15.05,6.72,23.37,7.58,10.26,1.06,20.49.73,30.71-.54Z" fill="#ce9321"></path>
    <path d="M122.63,208.25c-1.67.49-3.33,1.07-5.03,1.46-2.95.69-5.68-.14-8.15-1.69-4.41-2.77-7.96-6.34-9.88-11.32-.57-1.48-1.26-2.92-1.89-4.38,3.6-.62,7.19-.43,10.74.29,3.06.62,6,1.62,8.24,3.98-.31.49-.62.98-1.16,1.84.9-.45,1.47-.73,2.03-1.02.8,1.28,1.6,2.56,2.41,3.84.2.29.4.57.61.86.12.53.18,1.08.37,1.58.55,1.43,1.15,2.83,1.74,4.25,0,.11-.02.21-.03.32Z" fill="#5fc0c0"></path>
    <path d="M222.25,134.59c-.4-4.05-2.19-7.61-4.28-10.95-2.72-4.36-5.83-8.47-8.71-12.73-1.2-1.78-2.25-3.66-3.33-5.51-.16-.27-.11-.66-.16-1,1.65,2.01,3.18,4.13,4.97,6,6.65,6.99,14.89,11.22,24.16,13.58.37.09.73.22,1.2.36-.23.38-.35.66-.54.87-5.14,5.79-8.95,12.41-12.11,19.43-.16.36-.39.69-.58,1.04-.09-.47-.26-.94-.27-1.41-.03-3.03-.03-6.06-.04-9.09.22-.05.44-.1.77-.18-.44-.17-.75-.29-1.06-.41Z" fill="#3ea8a8"></path>
    <path d="M65.22,132.62c-.87,3.48-1.79,6.96-2.6,10.45-1.33,5.75-2.18,11.56-2.25,17.48-.02,1.74-.18,3.48-.27,5.22-2.23-1.12-4.48-2.2-6.66-3.4-.38-.21-.7-1-.63-1.45,1.66-10.78,5.27-20.93,10.16-30.64.06-.12.2-.2.39-.37.64.92,1.25,1.82,1.87,2.71Z" fill="#3ea8a8"></path>
    <path d="M281.1,101.75c1.44,1.38,2.81,2.85,4.34,4.12,3.71,3.07,7.58,5.9,12.46,6.83,1.95.37,3.95.52,5.92.82.68.1,1.33.36,1.99.55-3.34,1.67-6.95,2.04-10.61,2.21-6.3.29-12.2-1.09-17.68-4.24-.55-.32-1.06-.7-1.41-.94,1.72-3.21,3.35-6.28,4.99-9.35Z" fill="#d9f1f9"></path>
    <path d="M185.09,82.63c-.58-.13-1.16-.38-1.74-.38-9.94.04-19.87.12-29.81.19-2.09.01-4.18.04-6.27.06,1.37-1.63,2.7-3.29,4.14-4.86.27-.29.92-.29,1.4-.32,8.46-.56,16.88-.04,25.29.83,2.92.3,5.84.66,9.05,1.03-.77,1.29-1.41,2.37-2.06,3.45Z" fill="#9fe8e8"></path>
    <path d="M154.24,203.7c-.68-5.65-3.22-10.46-6.62-14.91-5.12-6.7-12.13-10.07-20.24-11.56-.5-.09-.94-.54-1.41-.82,1.58-.72,3.16-1.47,4.76-2.14.46-.19,1.09-.32,1.53-.16,7.67,2.74,14.21,7.06,18.96,13.82.78,1.11,2.01,2.14.27,3.77.9-.07,1.37-.11,2.22-.18,1.45,3.8,2.94,7.7,4.48,11.74-1.56.17-2.76.3-3.96.43Z" fill="#9fe8e8"></path>
    <path d="M288.19,45.95c-1.59,1.03-3.22,2.01-4.78,3.09-3.44,2.39-6.02,5.53-7.65,9.19-2.11-2.6-4.19-5.16-6.41-7.9,3.38-2.55,7.45-4.2,11.71-5.46,2.38.36,4.76.72,7.14,1.09Z" fill="#e4bf5c"></path>
    <path d="M112.1,177.31c.76.45,1.49.94,2.28,1.33,3.74,1.87,5.27,5.15,5.86,9.05-4.08-3.22-8.71-4.98-13.87-5.5-3.23-.33-6.26.1-9.18,1.47-.04-.03-.07-.07-.11-.1.48-.8.96-1.59,1.44-2.39.13-.11.26-.22.39-.33h-.03c1.24-.48,2.45-1.06,3.72-1.45,2.47-.75,4.97-1.4,7.46-2.09.68,0,1.36.01,2.05.02Z" fill="#3ea8a8"></path>
    <path d="M116.66,196.58c-2.25-2.36-5.18-3.35-8.24-3.98-3.55-.72-7.14-.92-10.74-.29-.58-.03-1.16-.07-1.74-.1-.2-.17-.39-.33-.59-.5,1.06-.71,2.22-1.32,3.16-2.17,1.32-1.2,2.78-1.97,4.55-1.97,5.19-.02,10,1.13,13.98,4.71,1.68,1.51,1.7,1.7.33,3.53-.21.28-.47.51-.71.76Z" fill="#9fe8e8"></path>
    <path d="M60.38,168.52c.08,1.94.15,3.89.23,5.83-2.57-.39-5.13-.78-7.7-1.19-.94-.15-1.36-.66-1.28-1.66.19-2.32.31-4.65.46-7.08,2.95,1.46,5.62,2.78,8.29,4.1Z" fill="#3ea8a8"></path>
    <path d="M199.59,85.78c-1.39-.51-2.74-1.17-4.17-1.5-2.53-.6-5.11-1.01-7.66-1.49.47-.87.88-1.79,1.44-2.6.23-.32.83-.57,1.24-.54,2.69.21,5.37.53,8.05.76.78.07,1.17.3,1.13,1.18-.07,1.4-.02,2.8-.03,4.19Z" fill="#9fe8e8"></path>
    <path d="M159.99,215.13c-.55,1.15-1.04,2.34-1.68,3.45-.99,1.7-2,3.4-3.18,4.97-.45.6-1.39.84-2.1,1.24,1.77-3.51,2.42-7.23,2.14-11.13,1.33.11,2.68.14,3.99.37.33.06.56.72.84,1.11Z" fill="#9fe8e8"></path>
    <path d="M144.77,82.95c-1.82.15-3.65.3-5.47.45,2.28-5.5,2.58-5.71,8.47-5.93.53-.02,1.07,0,1.63,0-1.58,1.87-3.1,3.67-4.62,5.48Z" fill="#9de4e5"></path>
    <path d="M125.68,176.36c-.48.17-.96.48-1.44.48-1.57,0-3.15-.13-4.72-.2,1.11-1.41,2.2-2.85,3.37-4.22.24-.28.79-.51,1.14-.45,2.01.37,4,.83,6,1.26-1.54,1.1-2.94,2.12-4.35,3.13Z" fill="#9de4e5"></path>
    <path d="M112.1,177.31c-.68,0-1.36-.01-2.05-.02-2.21-.21-4.41-.43-6.62-.64,3.4-2.33,7.26-3.42,11.46-4.28-.78,1.77-2.89,2.71-2.3,4.85-.16.03-.33.06-.49.09Z" fill="#9de4e5"></path>
    <path d="M71.14,118.92c-1.38,3.07-2.75,6.15-4.15,9.21-.34.75-.77,1.47-1.16,2.2-1.63-2.04-1.72-2.4-.46-4.48,1.68-2.75,3.45-5.44,5.19-8.16.14.05.29.1.43.15.05.36.1.72.15,1.08Z" fill="#3ea8a8"></path>
    <path d="M84.44,105.97c-2.8,2.04-5.6,4.08-8.41,6.11-.39.29-.82.53-1.23.8.26-.41.45-.87.78-1.21,3.22-3.35,6.45-6.68,9.69-10.01h-.03c-.27,1.44-.53,2.88-.8,4.31Z" fill="#9de4e5"></path>
    <path d="M288.19,45.95c-2.38-.36-4.76-.72-7.14-1.09,4.11-1.46,8.3-2,13.04-1.24-2.24.89-4.07,1.61-5.9,2.33Z" fill="#f4e79e"></path>
    <path d="M232.81,51.65c-2.26-.35-4.52-.7-6.78-1.06,3.56-1.39,7.24-2.28,11.49-2.62-1.78,1.39-3.25,2.53-4.71,3.67Z" fill="#f4e79e"></path>
    <path d="M118.52,176.72c-1.6.08-3.19.15-4.79.23,1.18-1.29,2.39-2.54,3.52-3.87,1.24-1.46,2.81-1.38,4.43-1.21-1.07,1.65-2.12,3.25-3.16,4.84Z" fill="#9de4e5"></path>
    <path d="M122.65,207.94c-.58-1.41-1.19-2.82-1.74-4.25-.19-.5-.25-1.05-.37-1.58.79-.37,1.58-.74,2.47-1.16,1.21,2.05,1.39,4.52,1.72,6.96-.69,0-1.39.02-2.08.03Z" fill="#9de4e5"></path>
    <path d="M103.43,176.65c2.21.21,4.41.43,6.62.64-2.49.69-4.99,1.34-7.46,2.09-1.27.39-2.48.97-3.72,1.46,1.52-1.4,3.04-2.8,4.56-4.19Z" fill="#68dede"></path>
    <path d="M119.94,201.25c-.8-1.28-1.6-2.56-2.41-3.84.56-.87,1.12-1.74,1.82-2.82.9,1.35,1.82,2.59,2.53,3.93.18.34-.15,1.1-.46,1.51-.38.5-.98.82-1.49,1.22Z" fill="#9de4e5"></path>
    <path d="M154.09,211.57c.34-.31.88-.57.98-.95.13-.47-.1-1.03-.18-1.56.84.09,1.68.15,2.51.29,2.17.37,2.17.39,2.29,2.84-1.89-.21-3.75-.42-5.61-.62Z" fill="#9de4e5"></path>
    <path d="M154.55,206.95c0-.81-.01-1.62-.02-2.44.58.11,1.17.23,1.75.32q2.33.36,2.69,3.04c-1.51-.31-2.97-.62-4.43-.92Z" fill="#9de4e5"></path>
    <path d="M122.65,207.94c.69,0,1.39-.02,2.08-.03.02.62.03,1.24.05,1.86-.56.23-1.12.45-1.68.68-.16-.73-.32-1.47-.48-2.2,0-.11.02-.21.03-.32Z" fill="#68dede"></path>
    <path d="M178.55,296.73c2.59.04,5.18.09,7.77.13-2.59-.04-5.18-.09-7.77-.13Z" fill="#d9a73a"></path>
    <path d="M95.35,191.72c.2.17.39.33.59.5-.43.04-.86.07-1.29.11.23-.2.47-.41.7-.61Z" fill="#5fc0c0"></path>
    <path d="M323.56,275.32c.11-.31.21-.62.32-.93-.11.31-.21.62-.32.93Z" fill="#f4e79e"></path>
    <path d="M205.76,104.41c-.11-.21-.22-.42-.33-.63.11.21.22.42.33.63Z" fill="#3ea8a8"></path>
    <path d="M158.47,272.63c.24-.07.47-.15.71-.22-.24.07-.47.15-.71.22Z" fill="#3ea8a8"></path>
    <path d="M74.54,113.17c-.13.11-.26.21-.39.32.13-.11.26-.22.39-.32Z" fill="#9de4e5"></path>
    <path d="M323.24,275.77c.11-.16.22-.32.33-.49-.11.16-.22.33-.33.49Z" fill="#f4e79e"></path>
    <path d="M222.32,146.74c.08-.15.16-.3.24-.44-.08.15-.16.3-.24.44Z" fill="#3ea8a8"></path>
    <path d="M74.84,112.87c-.11.11-.22.22-.33.33.11-.11.22-.22.33-.33Z" fill="#9de4e5"></path>
    <polygon points="85.27 101.66 85.31 101.7 85.24 101.67 85.27 101.66" fill="#9de4e5"></polygon>
    <path d="M98.9,180.84c-.13.11-.26.22-.39.33.13-.11.26-.22.39-.33Z" fill="#68dede"></path>
    <path d="M97.18,183.66c-.06.02-.13.05-.19.07l.08-.18s.07.07.11.1Z" fill="#3ea8a8"></path>
    <path d="M163.85,151.36c-1.14.34-2.28.7-3.42,1.03-2.4.7-4.8,1.44-7.22,2.07-.77.2-1.6.14-2.41.19-.08-.16-.15-.33-.23-.49.67-.68,1.29-1.41,2.01-2.03,7.55-6.59,16.42-10.83,25.67-14.42,6.91-2.68,14.05-4.5,21.4-5.13,4.2-.36,8.48.07,12.71.33,1.01.06,1.96.86,2.95,1.33-12.54.24-24.62,2.82-36.33,7.22-4.94,1.86-9.67,4.13-13.69,7.65-.6.52-.96,1.31-1.43,1.98,0,.09,0,.18,0,.27Z" fill="#9fe8e8"></path>
    <path d="M166.57,158.96c-3.86,3.03-7.62,6.16-10.48,10.22-.15.21-.52.27-.79.4-.09-.31-.36-.71-.25-.91.49-.92.98-1.87,1.66-2.65,7.42-8.59,16.49-15.01,26.79-19.6,6.33-2.82,12.95-4.99,19.44-7.46.23-.09.45-.21.68-.31.18-.05.36-.1.55-.15.35-.08.69-.17,1.04-.25.25-.06.5-.11.74-.17.15-.03.31-.06.46-.09,2.74-.39,5.48-.78,8.22-1.17,1.27.11,2.54.22,3.81.33-10.42,1.56-20.1,5.28-29.68,9.3-7.67,2.91-14.76,6.85-21.28,11.83-.15.11-.29.22-.44.33-.15.12-.31.24-.46.35Z" fill="#645338"></path>
    <path d="M166.57,158.96c.15-.12.31-.24.46-.35.15-.11.29-.22.44-.33,6.52-4.98,13.61-8.93,21.28-11.83-1.47,1.47-2.87,3.03-4.44,4.39-6.03,5.23-12.54,9.92-17.94,15.88-.92,1.01-2.22,2.14-3.5,1.24-1.27-.89-.45-2.43.14-3.54.61-1.13,1.51-2.1,2.23-3.18.49-.73.89-1.52,1.32-2.29Z" fill="#3ea9a9"></path>
    <path d="M163.86,151.09c.47-.67.83-1.46,1.43-1.98,4.01-3.52,8.75-5.79,13.69-7.65,11.71-4.4,23.79-6.99,36.33-7.22,2.32.12,4.63.24,6.95.35.31.12.61.24,1.06.41-.33.08-.55.13-.77.18-2.22.1-4.44.19-6.66.29-.45,0-.9-.03-1.35.02-8.55.99-17.06,2.3-25.41,4.45-6.85,1.76-13.56,3.94-19.69,7.56-1.68.99-3.14,2.38-4.7,3.58h.04c-.3,0-.61,0-.91.01Z" fill="#655940"></path>
    <path d="M164.73,151.07c1.56-1.21,3.01-2.59,4.7-3.58,6.13-3.62,12.84-5.79,19.69-7.56,8.35-2.15,16.85-3.45,25.41-4.45.44-.05.9-.02,1.35-.02-.42.45-.84.9-1.25,1.35-2.74.39-5.48.78-8.22,1.17-.15.03-.31.06-.46.09-.25.06-.5.11-.74.17-.35.08-.69.17-1.04.25-.18.05-.37.1-.55.15-1.51.21-3.03.35-4.53.63-9.4,1.8-18.23,5.2-26.88,9.22-2.38,1.1-4.98,1.73-7.47,2.57Z" fill="#9de4e5"></path>
    <path d="M135.11,154.37c.19.02.74.04,1.28.16,1.74.38,2.22,1.21,1.73,2.94-.86,3.08-3.14,5.08-5.68,5.09-1.59,0-2.68-.78-3.36-2.1-.72-1.4-.31-2.74.63-3.9,1.14-1.42,3.05-2.22,5.4-2.18Z" fill="#9fe8e8"></path>
    <path d="M163.86,151.09c.3,0,.61-.01.91-.02-.31.1-.61.2-.92.29,0-.09,0-.18,0-.27Z" fill="#9de4e5"></path>
    <path d="M153.05,224.77c-.2.09-.41.19-.61.28.2-.09.41-.19.61-.28Z" fill="#9fe8e8"></path>
    <path d="M292.34,135.3c.09,1.16.24,2.15.22,3.13-.14,6.76-.16,13.53-.53,20.28-.6,11.15-1.36,22.3-2.22,33.44-.35,4.58-1.09,9.14-1.78,13.69-.23,1.51-.59,3.26-2.5,3.53-1.98.28-2.91-1.32-3.45-2.8-2.47-6.72-5.18-13.38-7.11-20.25-4.07-14.51-7.72-29.14-11.49-43.73-.51-1.98-.71-4.04-1.02-6.07-.04-.29.11-.6.17-.9.34.08.77.04,1.01.24,3.16,2.63,6.68,4.4,10.87,4.6,3.79.18,7.34-.81,10.78-2.28,1.84-.79,3.64-1.68,5.47-2.49.43-.19.92-.24,1.57-.4ZM288.3,181.15c.88-14.64,1.77-29.28,2.66-44.11-8.93,6.01-17.7,7.71-26.95,1.04.24,1.01.39,1.79.61,2.55,2.05,7.06,4.12,14.11,6.16,21.18,1.17,4.03,2.29,8.08,3.43,12.11,0,.15-.03.31,0,.45,2.65,10.27,5.66,20.42,9.68,30.24.29.71.75,1.34,1.13,2.01,2.26-8.44,2.55-16.98,3.27-25.48Z" fill="#645338"></path>
    <path d="M241.22,139.66c-.16.56-.26,1.14-.49,1.67-2.35,5.25-4.92,10.41-7.04,15.75-3,7.58-5.68,15.28-8.5,22.93-.11.31-.22.62-.33.93-.13-.02-.27-.05-.4-.07.18-1.35.21-2.74.55-4.04,2.96-11.22,7.32-21.91,12.54-32.26.83-1.64,1.94-3.15,2.93-4.71.1-.15.27-.25.41-.37.11.06.22.11.32.17Z" fill="#645338"></path>
    <path d="M214.53,222.2c-.15,2.41-.14,4.85-.49,7.23-.91,6.24-1.92,12.5-4.52,18.3-1.24,2.76-2.89,5.36-4.52,7.92-.59.94-1.66,1.57-2.51,2.34-.12-.11-.24-.22-.36-.33.11-.24.17-.52.33-.72,4.23-5,6.36-10.96,7.7-17.23.91-4.25,1.55-8.56,2.41-12.83.32-1.63.89-3.2,1.35-4.8.2.03.4.07.6.1Z" fill="#645338"></path>
    <path d="M196.22,262.25c-1.15,3.13-18.75,17.09-21.45,17.13,6.99-5.79,14.05-11.65,21.12-17.51.11.12.22.25.33.37Z" fill="#645338"></path>
    <path d="M218.15,200.56c-.2-2.83.31-5.54,1.45-8.15.17.03.35.06.52.08-.44,2.72-.89,5.44-1.33,8.16-.21-.03-.43-.07-.64-.1Z" fill="#655940"></path>
    <path d="M215.86,213.5c.12-1.12.24-2.23.35-3.35.18.02.36.03.54.05-.1,1.11-.21,2.21-.31,3.32-.2,0-.39,0-.59-.01Z" fill="#655940"></path>
    <path d="M264.69,89.48c-.09.85-.1,1.96-.34,3.02-.44,1.93-1.85,3.04-3.59,3-1.71-.04-3.13-1.21-3.4-3.21-.31-2.37-.32-4.78-.52-7.17-.12-1.49-.34-2.98-.52-4.46-.24-1.85.53-3.35,2.03-3.93,1.54-.6,3.47-.09,4.23,1.57.82,1.78,1.27,3.76,1.64,5.7.32,1.71.31,3.48.46,5.47Z" fill="#645338"></path>
    <path d="M306.37,86.24c-.09,1.24-.02,2.53-.31,3.72-.26,1.08-.75,2.2-1.43,3.06-.88,1.1-2.2,1.62-3.63,1.07-1.37-.52-1.7-1.78-1.73-3.06-.02-1.14.33-2.3.25-3.43-.21-2.77-.57-5.53-.88-8.29-.03-.3-.16-.58-.21-.87-.3-1.51.29-2.85,1.5-3.43,1.2-.57,2.65-.18,3.55,1.11,1.61,2.31,2.31,4.96,2.62,7.72.09.79.12,1.59.17,2.39.03,0,.07,0,.1,0Z" fill="#645338"></path>
    <path d="M138.56,239.96c2.36,1.18,4.32,4.6,3.91,7.11-1.32-2.56-3.36-4.3-3.91-7.11Z" fill="#655940"></path>
    <path d="M85.67,240.72h-.01s.01,0,.01,0Z" fill="#615035"></path>
    <path d="M204.16,138.51c.35-.08.69-.17,1.04-.25-.35.08-.69.17-1.04.25Z" fill="#5fc0c0"></path>
    <path d="M205.94,138.08c.15-.03.31-.06.46-.09-.15.03-.31.06-.46.09Z" fill="#5fc0c0"></path>
    <path d="M167.47,158.28c-.15.11-.29.22-.44.33.15-.11.29-.22.44-.33Z" fill="#5fc0c0"></path>
    <path d="M274.22,173.93c-1.14-4.04-2.27-8.08-3.43-12.11-2.04-7.06-4.11-14.12-6.16-21.18-.22-.76-.37-1.54-.61-2.55,9.25,6.67,18.01,4.97,26.95-1.04-.89,14.83-1.78,29.47-2.66,44.11-3.37-1.86-6.71-3.75-10.11-5.55-1.27-.67-2.65-1.12-3.97-1.68Z" fill="#fbb5ae"></path>
    <path d="M274.22,173.93c1.33.55,2.71,1.01,3.97,1.68,3.39,1.8,6.74,3.69,10.11,5.55-.71,8.49-1,17.04-3.27,25.48-.38-.67-.84-1.3-1.13-2.01-4.02-9.83-7.03-19.98-9.68-30.24-.04-.14,0-.3,0-.45Z" fill="#f8877b"></path>
  </g>
</svg><style>@media (prefers-color-scheme: light) { :root { filter: none; } }
@media (prefers-color-scheme: dark) { :root { filter: none; } }
</style></svg>